Coordinates
version=1
nRows=19
nColumns=63
inDegrees=yes

Units are S.I. units (second, meters, Newtons, ...)
If the header above contains a line with 'inDegrees', this indicates whether rotational values are in degrees (yes) or radians (no).

endheader
time	pelvis_tilt	pelvis_list	pelvis_rotation	pelvis_tx	pelvis_ty	pelvis_tz	hip_flexion_r	hip_adduction_r	hip_rotation_r	knee_angle_r	knee_angle_r_beta	ankle_angle_r	subtalar_angle_r	mtp_angle_r	hip_flexion_l	hip_adduction_l	hip_rotation_l	knee_angle_l	knee_angle_l_beta	ankle_angle_l	subtalar_angle_l	mtp_angle_l	L5_S1_Flex_Ext	L5_S1_Lat_Bending	L5_S1_axial_rotation	L4_L5_Flex_Ext	L4_L5_Lat_Bending	L4_L5_axial_rotation	L3_L4_Flex_Ext	L3_L4_Lat_Bending	L3_L4_axial_rotation	L2_L3_Flex_Ext	L2_L3_Lat_Bending	L2_L3_axial_rotation	L1_L2_Flex_Ext	L1_L2_Lat_Bending	L1_L2_axial_rotation	L1_T12_Flex_Ext	L1_T12_Lat_Bending	L1_T12_axial_rotation	Abs_r3	Abs_r2	Abs_r1	Abs_t1	Abs_t2	neck_flexion	neck_bending	neck_rotation	arm_flex_r	arm_add_r	arm_rot_r	elbow_flex_r	pro_sup_r	wrist_flex_r	wrist_dev_r	arm_flex_l	arm_add_l	arm_rot_l	elbow_flex_l	pro_sup_l	wrist_flex_l	wrist_dev_l
2.081633	-1.887754	-11.533934	102.928743	0.284789	0.933196	0.705253	4.624895	-1.633538	-7.798938	6.795293	0.118600	27.477380	9.891444	0.000000	4.435533	1.570955	12.888160	2.783709	0.048585	26.292792	-4.750219	0.000000	0.150561	-0.567480	2.111007	0.279606	-0.754748	2.242945	0.247356	-1.379770	2.242945	0.172076	-1.379770	1.847131	0.139811	-1.157205	1.715193	0.086030	-0.879026	1.583255	1.075440	-6.419444	11.740787	0.000000	0.000000	20.204178	0.516073	1.144974	-2.962894	-15.609343	36.616026	93.230191	88.733022	0.723417	-0.852007	-4.579471	-15.376709	15.639158	54.868681	88.365550	-4.588429	5.069448
2.102041	-1.847357	-11.741485	103.207960	0.284640	0.932261	0.706925	4.903130	-1.643613	-8.105422	6.802245	0.118722	27.490901	9.776060	0.000000	4.852900	1.627153	13.410899	2.949560	0.051480	26.417512	-4.926406	0.000000	0.138398	-0.536830	2.019486	0.257019	-0.713984	2.145703	0.227374	-1.305248	2.145703	0.158175	-1.305248	1.767050	0.128517	-1.094703	1.640832	0.079081	-0.831549	1.514614	0.988564	-6.072725	11.231773	0.000000	0.000000	21.215781	0.613571	1.473360	-2.174988	-15.154307	35.911988	86.333605	88.787226	-0.468758	-0.457123	-3.916192	-15.246204	16.584646	53.008596	88.315520	-3.617549	5.092459
2.122449	-1.773017	-11.915862	103.405592	0.284469	0.931437	0.708511	5.173638	-1.618377	-8.370858	6.809709	0.118852	27.571782	9.760798	0.000000	5.215977	1.640207	13.866387	3.091959	0.053965	26.526856	-5.095254	0.000000	0.124551	-0.497158	1.920923	0.231303	-0.661220	2.040981	0.204625	-1.208790	2.040981	0.142349	-1.208790	1.680808	0.115658	-1.013805	1.560750	0.071168	-0.770098	1.440693	0.889655	-5.623951	10.683599	0.000000	0.000000	22.194116	0.769856	1.906223	-1.240745	-14.734917	35.184124	79.383431	88.605295	-1.920892	-0.026362	-3.288027	-15.020328	17.394929	51.337539	88.283069	-3.232346	5.025047
2.142857	-1.697936	-12.050866	103.550790	0.284248	0.930795	0.709947	5.414065	-1.593528	-8.612074	6.814952	0.118943	27.722901	9.833899	0.000000	5.509069	1.646050	14.273046	3.206511	0.055964	26.572775	-5.284798	0.000000	0.107472	-0.453022	1.807202	0.199587	-0.602519	1.920152	0.176567	-1.101478	1.920152	0.122830	-1.101478	1.581302	0.099799	-0.923803	1.468351	0.061410	-0.701731	1.355401	0.767665	-5.124677	10.051114	0.000000	0.000000	23.108647	1.005400	2.427533	-0.222302	-14.373460	34.388995	72.605700	88.159876	-3.459722	0.405116	-2.685726	-14.717089	17.965791	49.929113	88.261565	-3.404926	5.021285
2.163265	-1.610062	-12.165906	103.599944	0.284090	0.930337	0.711150	5.653853	-1.550166	-8.786239	6.832961	0.119258	27.929264	9.999217	0.000000	5.741016	1.621180	14.556774	3.275076	0.057161	26.575212	-5.441999	0.000000	0.091688	-0.405122	1.700363	0.170274	-0.538812	1.806636	0.150634	-0.985013	1.806636	0.104790	-0.985013	1.487818	0.085141	-0.826124	1.381545	0.052390	-0.627534	1.275272	0.654918	-4.582818	9.456910	0.000000	0.000000	23.940615	1.217076	2.910410	0.763051	-14.103060	33.455292	66.279302	87.501694	-5.385417	0.745290	-2.073072	-14.323754	18.289238	48.696973	88.252845	-4.090671	4.840271
2.183673	-1.534390	-12.257290	103.588499	0.284000	0.930117	0.712064	5.871264	-1.512986	-8.917462	6.853046	0.119608	28.169587	10.238367	0.000000	5.905932	1.591335	14.730973	3.301423	0.057621	26.508977	-5.568755	0.000000	0.076277	-0.358508	1.601670	0.141654	-0.476816	1.701775	0.125315	-0.871676	1.701775	0.087177	-0.871676	1.401462	0.070831	-0.731070	1.301357	0.043585	-0.555329	1.201253	0.544839	-4.055515	8.908011	0.000000	0.000000	24.690828	1.377630	3.241843	1.640555	-13.903890	32.297798	60.550451	86.549762	-7.559474	0.586308	-1.417556	-13.875461	18.456581	47.565872	88.260988	-5.352891	4.413476
2.204082	-1.463985	-12.328650	103.472804	0.284035	0.930111	0.712662	6.076334	-1.469787	-8.972416	6.883773	0.120144	28.422379	10.558755	0.000000	6.002741	1.543185	14.755036	3.280569	0.057257	26.396939	-5.657731	0.000000	0.062527	-0.312656	1.528747	0.116119	-0.415832	1.624294	0.102726	-0.760191	1.624294	0.071462	-0.760191	1.337654	0.058063	-0.637568	1.242107	0.035728	-0.484304	1.146560	0.446625	-3.536825	8.502434	0.000000	0.000000	25.358185	1.427222	3.412278	2.348171	-13.831332	30.979786	55.688165	85.624820	-10.252932	0.200047	-0.707071	-13.371139	18.493324	46.499155	88.290844	-7.017687	3.902355
2.224490	-1.403079	-12.384694	103.265230	0.284225	0.930267	0.712959	6.269747	-1.420499	-8.946898	6.927876	0.120914	28.671944	10.917251	0.000000	6.042067	1.480451	14.618148	3.225835	0.056301	26.266942	-5.687511	0.000000	0.050643	-0.269290	1.477305	0.094050	-0.358156	1.569637	0.083202	-0.654753	1.569637	0.057880	-0.654753	1.292642	0.047027	-0.549137	1.200311	0.028938	-0.417131	1.107979	0.361741	-3.046266	8.216329	0.000000	0.000000	25.965046	1.386880	3.508396	2.873170	-13.888143	29.572013	51.854840	84.836058	-13.359602	-0.264240	0.034518	-12.805799	18.339379	45.502285	88.362735	-8.866000	3.461666
2.244898	-1.351558	-12.425805	102.960947	0.284615	0.930542	0.713003	6.449073	-1.361624	-8.836602	6.980419	0.121831	28.894965	11.300911	0.000000	6.028732	1.400977	14.317616	3.142868	0.054853	26.113323	-5.669334	0.000000	0.041597	-0.230821	1.450021	0.077249	-0.306992	1.540647	0.068339	-0.561218	1.540647	0.047541	-0.561218	1.268768	0.038627	-0.470690	1.178142	0.023768	-0.357542	1.087516	0.297121	-2.611092	8.064582	0.000000	0.000000	26.495094	1.310247	3.474798	3.224142	-14.090265	28.153645	49.118965	84.207572	-16.733889	-0.805152	0.830270	-12.208962	18.140144	44.550481	88.457088	-10.786184	3.071890
2.265306	-1.316721	-12.453341	102.555872	0.285255	0.930869	0.712852	6.614209	-1.298882	-8.640692	7.043209	0.122927	29.086978	11.712763	0.000000	5.968046	1.310904	13.881229	3.035219	0.052975	25.947101	-5.650009	0.000000	0.036524	-0.200282	1.450008	0.067828	-0.266375	1.540633	0.060005	-0.486966	1.540633	0.041743	-0.486966	1.268757	0.033916	-0.408416	1.178131	0.020870	-0.310237	1.087506	0.260886	-2.265633	8.064507	0.000000	0.000000	26.940968	1.212391	3.246577	3.417677	-14.433937	26.787607	47.508086	83.769531	-20.253618	-1.328389	1.686305	-11.615656	18.063613	43.679501	88.531099	-12.753449	2.680420
2.285714	-1.315899	-12.462519	102.089092	0.286137	0.931217	0.712594	6.755460	-1.250481	-8.371453	7.120655	0.124279	29.244651	12.102729	0.000000	5.869441	1.230669	13.350213	2.918747	0.050942	25.770166	-5.631810	0.000000	0.033824	-0.180777	1.460217	0.062814	-0.240434	1.551481	0.055569	-0.439542	1.551481	0.038657	-0.439542	1.277690	0.031409	-0.368641	1.186427	0.019327	-0.280024	1.095163	0.241598	-2.044989	8.121290	0.000000	0.000000	27.304800	1.203083	2.923300	3.517929	-14.863286	25.532317	46.955061	83.540701	-23.660024	-1.857662	2.528582	-11.025292	18.011418	42.975649	88.548708	-14.428248	2.182193
2.306122	-1.335648	-12.451909	101.547489	0.287265	0.931531	0.712240	6.869478	-1.201300	-8.006691	7.206599	0.125779	29.365356	12.453600	0.000000	5.734027	1.145757	12.699850	2.785081	0.048609	25.625601	-5.575033	0.000000	0.034476	-0.170507	1.478987	0.064026	-0.226775	1.571424	0.056641	-0.414572	1.571424	0.039403	-0.414572	1.294114	0.032014	-0.347699	1.201677	0.019700	-0.264116	1.109240	0.246259	-1.928813	8.225683	0.000000	0.000000	27.581625	1.284135	2.525431	3.544827	-15.340182	24.441306	47.393164	83.551263	-26.820638	-2.428799	3.274574	-10.437882	17.969713	42.585078	88.564177	-15.723503	1.511219
2.326531	-1.410355	-12.444554	101.044787	0.288510	0.931819	0.711948	6.961531	-1.201785	-7.644660	7.299412	0.127399	29.434275	12.731235	0.000000	5.619558	1.113932	12.057776	2.685167	0.046865	25.488318	-5.526381	0.000000	0.036369	-0.173309	1.477733	0.067541	-0.230501	1.570091	0.059751	-0.421384	1.570091	0.041566	-0.421384	1.293016	0.033772	-0.353412	1.200658	0.020781	-0.268456	1.108299	0.259781	-1.960508	8.218705	0.000000	0.000000	27.785751	1.478617	2.146311	3.559665	-15.785049	23.550495	48.682621	83.791208	-29.319052	-3.019119	3.899766	-9.887422	17.908971	42.588618	88.616911	-16.302592	0.490647
2.346939	-1.502346	-12.451367	100.531754	0.289867	0.932044	0.711745	7.050279	-1.213628	-7.233975	7.389129	0.128965	29.428911	12.919442	0.000000	5.538164	1.096077	11.366373	2.603535	0.045440	25.382018	-5.442687	0.000000	0.041845	-0.183060	1.472334	0.077711	-0.243470	1.564355	0.068748	-0.445092	1.564355	0.047825	-0.445092	1.288292	0.038858	-0.373296	1.196271	0.023911	-0.283560	1.104250	0.298898	-2.070810	8.188679	0.000000	0.000000	27.915048	1.728049	1.772125	3.569914	-16.179812	22.898801	50.711412	84.211202	-31.074346	-3.566234	4.392928	-9.342452	17.866989	43.104858	88.774884	-16.248700	-0.676899
2.367347	-1.627974	-12.473291	100.060986	0.291220	0.932200	0.711642	7.128928	-1.261762	-6.819114	7.487104	0.130675	29.367937	12.988125	0.000000	5.504298	1.120405	10.687683	2.575961	0.044959	25.308764	-5.332388	0.000000	0.048428	-0.199282	1.441786	0.089936	-0.265044	1.531898	0.079563	-0.484533	1.531898	0.055349	-0.484533	1.261563	0.044971	-0.406375	1.171451	0.027672	-0.308687	1.081339	0.345919	-2.254313	8.018781	0.000000	0.000000	27.985803	2.017573	1.526465	3.727487	-16.501400	22.723003	53.268368	84.736421	-31.992129	-3.948101	4.704541	-8.805073	17.755868	44.227527	89.012595	-15.416390	-1.696554
2.387755	-1.740100	-12.503094	99.629620	0.292477	0.932257	0.711578	7.190722	-1.300336	-6.409733	7.576878	0.132241	29.243119	12.955227	0.000000	5.513560	1.141879	10.036611	2.601882	0.045411	25.289535	-5.202444	0.000000	0.056624	-0.212901	1.382838	0.105156	-0.283159	1.469265	0.093027	-0.517648	1.469265	0.064715	-0.517648	1.209983	0.052581	-0.434148	1.123556	0.032355	-0.329784	1.037128	0.404457	-2.408382	7.690928	0.000000	0.000000	28.009624	2.369157	1.603514	4.101611	-16.732237	23.173794	56.112692	85.341431	-32.052231	-4.240087	4.800546	-8.224280	17.484242	45.974658	89.254475	-13.801441	-2.161095
2.408163	-1.830710	-12.539597	99.242423	0.293569	0.932193	0.711551	7.238433	-1.325268	-6.014116	7.656718	0.133635	29.062785	12.831707	0.000000	5.564533	1.156717	9.455040	2.681969	0.046809	25.322481	-5.086533	0.000000	0.065163	-0.220488	1.297224	0.121014	-0.293249	1.378301	0.107057	-0.536094	1.378301	0.074475	-0.536094	1.135071	0.060510	-0.449619	1.053995	0.037234	-0.341535	0.972918	0.465454	-2.494201	7.214773	0.000000	0.000000	28.003792	2.760366	2.057924	4.697159	-16.846083	24.268632	59.040702	85.816885	-31.176114	-4.404611	4.750246	-7.649766	17.192267	48.282981	89.247258	-11.639539	-1.867414
2.428571	-1.886607	-12.578910	98.898809	0.294444	0.931980	0.711496	7.267384	-1.324201	-5.636044	7.720868	0.134755	28.849767	12.634205	0.000000	5.649017	1.154451	8.972478	2.819339	0.049207	25.413889	-5.013883	0.000000	0.074364	-0.219270	1.189842	0.138101	-0.291629	1.264207	0.122172	-0.533133	1.264207	0.084990	-0.533133	1.041111	0.069054	-0.447135	0.966746	0.042491	-0.339649	0.892381	0.531173	-2.480424	6.617542	0.000000	0.000000	27.978729	3.191581	2.889000	5.463350	-16.841895	25.957853	61.881772	85.941724	-29.381226	-4.345182	4.622427	-7.122044	17.005372	51.067898	88.800574	-9.280745	-0.685300
2.448980	-1.889908	-12.607674	98.601773	0.295048	0.931632	0.711421	7.268453	-1.280398	-5.283716	7.764777	0.135521	28.612191	12.381633	0.000000	5.754126	1.118299	8.594549	3.012852	0.052584	25.571772	-4.996645	0.000000	0.082784	-0.206187	1.070840	0.153738	-0.274229	1.137767	0.136006	-0.501324	1.137767	0.094614	-0.501324	0.936985	0.076873	-0.420457	0.870057	0.047303	-0.319384	0.803130	0.591319	-2.332431	5.955689	0.000000	0.000000	27.937565	3.609412	4.016942	6.335227	-16.745574	28.108357	64.483381	85.635602	-26.783534	-3.998839	4.516054	-6.657872	17.067143	54.153554	87.864612	-6.977408	1.280214
